<?xml version="1.0" encoding="utf-8"?>
<!-- Generator: Adobe Illustrator 22.0.1, SVG Export Plug-In . SVG Version: 6.00 Build 0)  -->
<svg version="1.1" id="Layer_1" xmlns="http://www.w3.org/2000/svg" xmlns:xlink="http://www.w3.org/1999/xlink" x="0px" y="0px"
	 viewBox="0 0 56.7 56.7" style="enable-background:new 0 0 56.7 56.7;" xml:space="preserve">
<style type="text/css">
	.st0{fill:none;stroke:#007BFF;stroke-width:1.5;stroke-miterlimit:10;}
</style>
<g>
	<path class="st0" d="M43.6,38c0,0-0.1,2.4-3.2,2.7c-0.7,0.1-6.2,0.2-6.2,0.2l0-16.8c0,0-0.2-3.6,2.6-6.3c2.6-2.5,6.2-2.5,6.2-2.5
		L43.6,38z"/>
	<path class="st0" d="M32.5,8l-0.1,0.3L17.9,40.7l-0.4,0c-0.1-6.9-0.2-13.9-0.2-20.9c0-2.5-0.1-5.1,0.4-7.6c0.2-0.8,0.4-1.7,0.7-2.5
		c0.7-1.9,2-4.1,3.7-5.2c1.1-0.7,2.4-1.1,3.7-1c1.1,0,2,0.3,2.8,0.6c0.8,0.4,1.4,0.9,2,1.5c0.4,0.4,0.7,0.8,1,1.1
		C31.9,7.2,32.2,7.6,32.5,8z"/>
	<line class="st0" x1="17.6" y1="40.5" x2="17.6" y2="50.5"/>
	<line class="st0" x1="34.3" y1="41" x2="34.3" y2="51"/>
	<line class="st0" x1="13.1" y1="50.5" x2="22" y2="50.5"/>
	<line class="st0" x1="29.9" y1="50.5" x2="38.7" y2="50.5"/>
</g>
</svg>
